<svg width="296" height="74" viewBox="0 0 296 74" fill="none" xmlns="http://www.w3.org/2000/svg">
<g clip-path="url(#clip0_86_60)">
<path d="M171.105 58.454C170.648 58.454 170.294 58.3296 170.044 58.0809C169.794 57.7907 169.669 57.4383 169.669 57.0237V16.417C169.669 15.961 169.794 15.6086 170.044 15.3599C170.294 15.0697 170.648 14.9246 171.105 14.9246H186.967C190.048 14.9246 192.712 15.4221 194.96 16.417C197.25 17.412 199.019 18.9044 200.268 20.8943C201.517 22.8428 202.142 25.2888 202.142 28.2321C202.142 31.1755 201.517 33.6215 200.268 35.57C199.019 37.5184 197.25 38.9901 194.96 39.9851C192.712 40.98 190.048 41.4775 186.967 41.4775H175.914V57.0237C175.914 57.4383 175.768 57.7907 175.477 58.0809C175.227 58.3296 174.873 58.454 174.415 58.454H171.105ZM175.851 36.254H186.655C189.735 36.254 192.046 35.57 193.586 34.2019C195.127 32.8338 195.897 30.8439 195.897 28.2321C195.897 25.6619 195.148 23.6719 193.649 22.2624C192.15 20.8529 189.819 20.1481 186.655 20.1481H175.851V36.254ZM221.798 59.0758C218.634 59.0758 215.991 58.4747 213.867 57.2725C211.744 56.0703 210.121 54.412 208.997 52.2977C207.873 50.1419 207.248 47.696 207.123 44.9599C207.081 44.2551 207.061 43.3638 207.061 42.2859C207.061 41.1666 207.081 40.2753 207.123 39.612C207.248 36.8344 207.873 34.3885 208.997 32.2742C210.162 30.1599 211.807 28.5016 213.93 27.2994C216.053 26.0972 218.676 25.496 221.798 25.496C224.921 25.496 227.543 26.0972 229.667 27.2994C231.79 28.5016 233.413 30.1599 234.537 32.2742C235.703 34.3885 236.348 36.8344 236.473 39.612C236.515 40.2753 236.536 41.1666 236.536 42.2859C236.536 43.3638 236.515 44.2551 236.473 44.9599C236.348 47.696 235.724 50.1419 234.6 52.2977C233.476 54.412 231.852 56.0703 229.729 57.2725C227.606 58.4747 224.962 59.0758 221.798 59.0758ZM221.798 54.2876C224.379 54.2876 226.44 53.4792 227.981 51.8624C229.52 50.2041 230.354 47.7997 230.478 44.649C230.52 44.0271 230.541 43.2394 230.541 42.2859C230.541 41.3324 230.52 40.5448 230.478 39.9229C230.354 36.7722 229.52 34.3885 227.981 32.7716C226.44 31.1134 224.379 30.2842 221.798 30.2842C219.217 30.2842 217.135 31.1134 215.554 32.7716C214.013 34.3885 213.201 36.7722 213.118 39.9229C213.076 40.5448 213.056 41.3324 213.056 42.2859C213.056 43.2394 213.076 44.0271 213.118 44.649C213.201 47.7997 214.013 50.2041 215.554 51.8624C217.135 53.4792 219.217 54.2876 221.798 54.2876ZM255.595 59.0758C253.264 59.0758 251.266 58.7856 249.6 58.2053C247.936 57.6249 246.582 56.9201 245.541 56.091C244.501 55.2619 243.71 54.4327 243.168 53.6036C242.669 52.7745 242.398 52.1111 242.357 51.6137C242.315 51.1577 242.461 50.8053 242.794 50.5565C243.127 50.3078 243.46 50.1834 243.793 50.1834H246.54C246.79 50.1834 246.978 50.2249 247.103 50.3078C247.269 50.3493 247.477 50.515 247.727 50.8053C248.268 51.3856 248.872 51.9661 249.538 52.5464C250.204 53.1268 251.016 53.6036 251.973 53.9767C252.973 54.3498 254.201 54.5363 255.658 54.5363C257.781 54.5363 259.53 54.1425 260.903 53.3548C262.277 52.5257 262.964 51.3234 262.964 49.7481C262.964 48.7117 262.673 47.8826 262.09 47.2607C261.549 46.6389 260.55 46.0792 259.092 45.5817C257.677 45.0842 255.72 44.5661 253.222 44.0271C250.724 43.4467 248.747 42.7419 247.29 41.9128C245.833 41.0422 244.792 40.0266 244.167 38.8658C243.543 37.6635 243.231 36.3162 243.231 34.8237C243.231 33.2898 243.689 31.8182 244.605 30.4086C245.521 28.9577 246.853 27.7761 248.601 26.8641C250.392 25.952 252.619 25.496 255.283 25.496C257.448 25.496 259.301 25.7655 260.841 26.3044C262.381 26.8434 263.651 27.5274 264.65 28.3565C265.649 29.1442 266.399 29.9318 266.898 30.7195C267.398 31.5072 267.669 32.1705 267.71 32.7095C267.752 33.124 267.627 33.4764 267.335 33.7666C267.044 34.0153 266.711 34.1397 266.336 34.1397H263.713C263.422 34.1397 263.173 34.0775 262.964 33.9532C262.798 33.8288 262.631 33.6837 262.465 33.5179C262.049 32.9789 261.549 32.44 260.966 31.9011C260.425 31.3621 259.696 30.9268 258.78 30.5952C257.906 30.2221 256.741 30.0355 255.283 30.0355C253.202 30.0355 251.641 30.4708 250.6 31.3414C249.559 32.212 249.038 33.3106 249.038 34.6372C249.038 35.4249 249.268 36.1296 249.725 36.7515C250.184 37.3733 251.058 37.933 252.348 38.4305C253.639 38.9279 255.554 39.4669 258.093 40.0473C260.841 40.5862 263.006 41.3117 264.588 42.2237C266.17 43.1358 267.294 44.193 267.96 45.3952C268.626 46.5974 268.959 47.9862 268.959 49.5616C268.959 51.3027 268.439 52.8988 267.398 54.3498C266.399 55.8008 264.9 56.9616 262.902 57.8321C260.945 58.6613 258.51 59.0758 255.595 59.0758ZM288.804 58.454C286.473 58.454 284.579 58.0187 283.121 57.1481C281.665 56.236 280.603 54.9716 279.937 53.3548C279.271 51.6966 278.937 49.7481 278.937 47.5095V31.0927H274.067C273.651 31.0927 273.297 30.9683 273.005 30.7195C272.755 30.4293 272.63 30.077 272.63 29.6624V27.5481C272.63 27.1335 272.755 26.8019 273.005 26.5532C273.297 26.2629 273.651 26.1179 274.067 26.1179H278.937V15.733C278.937 15.3184 279.062 14.9868 279.312 14.738C279.604 14.4478 279.958 14.3027 280.374 14.3027H283.309C283.725 14.3027 284.058 14.4478 284.308 14.738C284.6 14.9868 284.745 15.3184 284.745 15.733V26.1179H292.489C292.905 26.1179 293.238 26.2629 293.488 26.5532C293.779 26.8019 293.925 27.1335 293.925 27.5481V29.6624C293.925 30.077 293.779 30.4293 293.488 30.7195C293.238 30.9683 292.905 31.0927 292.489 31.0927H284.745V47.0742C284.745 49.0226 285.079 50.5565 285.744 51.6758C286.411 52.7952 287.597 53.3548 289.304 53.3548H293.113C293.53 53.3548 293.862 53.4999 294.112 53.7901C294.404 54.0389 294.549 54.3705 294.549 54.7851V57.0237C294.549 57.4383 294.404 57.7907 294.112 58.0809C293.862 58.3296 293.53 58.454 293.113 58.454H288.804Z" fill="#2A3081"/>
<path d="M59.01 57.1705H61.3699C61.5754 57.1718 61.7791 57.1327 61.9694 57.0556C62.1596 56.9785 62.3327 56.8649 62.4791 56.7212C62.6246 56.5775 62.7407 56.4066 62.8206 56.2183C62.9 56.03 62.9412 55.828 62.9424 55.6237V48.6743C62.9399 48.2619 62.7732 47.8671 62.4784 47.5768C62.1836 47.2864 61.7849 47.1243 61.3699 47.126H48.7891C48.7891 52.677 53.3644 57.1768 59.01 57.1768" fill="#2A3081"/>
<path d="M20.9564 30.3134C13.0906 28.3153 11.1404 27.3509 11.1404 24.3852V24.2558C11.1404 22.0666 13.1556 20.3273 16.9925 20.3273C20.4291 20.3273 23.9801 21.6736 27.5755 23.9496C27.9175 24.163 28.3292 24.237 28.7248 24.1561C29.1203 24.0753 29.4692 23.8458 29.6987 23.5155L33.1782 18.5153C33.4109 18.1786 33.5 17.764 33.4263 17.3622C33.3525 16.9603 33.1217 16.6038 32.7844 16.3704C28.4076 13.2816 23.1701 11.5659 17.1211 11.5659C7.82608 11.5659 1.19261 16.9765 1.19261 25.1586V25.288C1.19261 34.2435 7.10981 36.7546 16.2794 39.0748C23.8832 41.0083 25.4443 42.2946 25.4443 44.8073V44.9367C25.4443 47.5773 22.9732 49.1888 18.8791 49.1888C14.1688 49.1888 10.2082 47.4526 6.45873 44.6289C6.13738 44.3891 5.73573 44.281 5.33654 44.3268C4.93736 44.3726 4.57108 44.5689 4.3132 44.8752L0.365222 49.555C0.230831 49.7135 0.129963 49.8974 0.0686339 50.0955C0.00730477 50.2937 -0.0132276 50.5022 0.00826384 50.7084C0.0297553 50.9146 0.0928297 51.1144 0.193722 51.2959C0.294614 51.4774 0.431256 51.6368 0.595494 51.7646C5.85047 55.9093 12.2933 57.9565 18.679 57.9565C28.495 57.9565 35.3857 52.9326 35.3857 43.9771V43.8477C35.3857 35.9892 30.1847 32.7031 20.9532 30.3198" fill="#2A3081"/>
<path d="M62.1545 18.5232H48.7876V9.63234C48.7865 9.428 48.745 9.22584 48.6653 9.03742C48.5857 8.849 48.4695 8.67805 48.3233 8.53422C48.1772 8.39045 48.004 8.27671 47.8136 8.19948C47.6232 8.12218 47.4194 8.08301 47.2138 8.084H40.1388C39.7241 8.08232 39.3256 8.24425 39.0309 8.53422C38.7361 8.82425 38.5691 9.21863 38.5667 9.63079V37.0765C38.5667 42.6275 43.1435 47.1274 48.7876 47.1274V27.8006H62.1545C62.36 27.8019 62.5641 27.7628 62.7539 27.6858C62.9444 27.6087 63.118 27.4951 63.2641 27.3514C63.4102 27.2078 63.5264 27.0369 63.6057 26.8485C63.6856 26.6602 63.7275 26.4581 63.7281 26.2539V20.07C63.7275 19.8656 63.6856 19.6636 63.6057 19.4752C63.5264 19.2869 63.4102 19.116 63.2641 18.9724C63.118 18.8287 62.9444 18.7151 62.7539 18.638C62.5641 18.5609 62.36 18.5219 62.1545 18.5232Z" fill="#2A3081"/>
<path d="M74.5158 36.2131C75.4582 31.9832 78.3401 29.2574 82.406 29.2574C86.535 29.2574 89.3552 32.04 90.1158 36.2131H74.5158ZM82.406 21.23C71.9118 21.23 64.5792 29.5225 64.5792 39.5892V39.7218C64.5792 50.5145 72.585 57.95 83.4139 57.95C89.2727 57.95 93.7783 55.9329 97.0718 52.5663C97.2167 52.4164 97.3297 52.2387 97.4034 52.044C97.4771 51.8493 97.5095 51.6417 97.4995 51.4339C97.4895 51.2262 97.4371 51.0226 97.3453 50.8357C97.2535 50.6488 97.1242 50.4826 96.9656 50.3472L93.3256 47.1905C93.0433 46.9473 92.6836 46.8108 92.3102 46.8051C91.9367 46.7993 91.5727 46.9246 91.2829 47.1589C88.8531 49.1002 86.5663 49.9147 83.5507 49.9147C79.1644 49.9147 75.8422 47.7318 74.6844 43.5524H98.3613C98.7554 43.5625 99.1382 43.42 99.4285 43.1549C99.7189 42.8899 99.8944 42.5231 99.9175 42.1319C99.9431 41.5827 99.9618 41.027 99.9618 40.5125V40.3799C99.9618 30.3796 94.4465 21.2315 82.406 21.2315" fill="#2A3081"/>
<path d="M132.191 39.6728C132.191 45.62 128.168 49.4586 123.408 49.4586C118.649 49.4586 114.694 45.5584 114.694 39.6728V39.5403C114.694 33.6578 118.649 29.7545 123.408 29.7545C128.168 29.7545 132.191 33.6546 132.191 39.5403V39.6728ZM126.022 21.23C120.728 21.23 117.342 23.6748 114.861 26.9814V23.5517C114.859 23.1396 114.691 22.7456 114.396 22.4561C114.101 22.1667 113.702 22.0056 113.287 22.0081H106.213C105.798 22.0056 105.4 22.1667 105.104 22.4561C104.809 22.7456 104.642 23.1396 104.639 23.5517V63.7487C104.64 63.9527 104.682 64.1548 104.762 64.3432C104.841 64.531 104.958 64.702 105.104 64.8456C105.25 64.9887 105.423 65.1025 105.613 65.1796C105.804 65.2561 106.007 65.2952 106.213 65.294H113.287C113.493 65.2952 113.697 65.2561 113.887 65.1796C114.077 65.1025 114.25 64.9887 114.397 64.8456C114.543 64.702 114.659 64.531 114.739 64.3432C114.819 64.1548 114.86 63.9527 114.861 63.7487V52.7004C117.273 55.5415 120.594 57.9894 126.022 57.9894C134.538 57.9894 142.38 51.5182 142.38 39.6807V39.5482C142.38 27.7106 134.403 21.2394 126.022 21.2394" fill="#2A3081"/>
</g>
<defs>
<clipPath id="clip0_86_60">
<rect width="296" height="74" fill="white"/>
</clipPath>
</defs>
</svg>
